<svg xmlns="http://www.w3.org/2000/svg" xmlns:xlink="http://www.w3.org/1999/xlink" style="width: 100%; height: 100%" viewBox="0 0 16 20" preserveAspectRatio="none" width="16" height="20"><defs><svg width="16" height="20" viewBox="0 0 16 20" fill="none" xmlns="http://www.w3.org/2000/svg" id="svg544432485_2582">
<path d="M5.96167 5.625C5.96167 2.86358 8.20025 0.625 10.9617 0.625C13.7231 0.625 15.9617 2.86358 15.9617 5.625V19.375" stroke="#111111" stroke-width="1.5px" stroke-linecap="round" stroke-linejoin="round" fill="none"></path>
<path fill-rule="evenodd" clip-rule="evenodd" d="M2.21167 9.375C2.21167 7.30393 3.8906 5.625 5.96167 5.625C8.03274 5.625 9.71167 7.30393 9.71167 9.375H2.21167Z" stroke="#111111" stroke-width="1.5px" stroke-linecap="round" stroke-linejoin="round" fill="none"></path>
<path d="M5.96167 12.5C6.13426 12.5 6.27417 12.6399 6.27417 12.8125C6.27417 12.9851 6.13426 13.125 5.96167 13.125C5.78908 13.125 5.64917 12.9851 5.64917 12.8125C5.64917 12.6399 5.78908 12.5 5.96167 12.5" stroke="#111111" stroke-width="1.5px" stroke-linecap="round" stroke-linejoin="round" fill="none"></path>
<path d="M5.96167 17.5C6.13426 17.5 6.27417 17.6399 6.27417 17.8125C6.27417 17.9851 6.13426 18.125 5.96167 18.125C5.78908 18.125 5.64917 17.9851 5.64917 17.8125C5.64917 17.6399 5.78908 17.5 5.96167 17.5" stroke="#111111" stroke-width="1.5px" stroke-linecap="round" stroke-linejoin="round" fill="none"></path>
<path d="M9.30271 12.5158C9.42291 12.4765 9.55499 12.5134 9.63729 12.6095C9.71958 12.7055 9.73587 12.8417 9.67854 12.9545C9.62122 13.0672 9.50158 13.1343 9.37549 13.1244C9.24939 13.1144 9.14171 13.0295 9.10271 12.9092C9.04961 12.7454 9.13905 12.5694 9.30271 12.5158" stroke="#111111" stroke-width="1.5px" stroke-linecap="round" stroke-linejoin="round" fill="none"></path>
<path d="M10.8511 17.27C10.9713 17.2306 11.1033 17.2676 11.1856 17.3636C11.2679 17.4597 11.2842 17.5959 11.2269 17.7086C11.1696 17.8214 11.0499 17.8884 10.9238 17.8785C10.7977 17.8686 10.6901 17.7836 10.6511 17.6633C10.598 17.4995 10.6874 17.3236 10.8511 17.27" stroke="#111111" stroke-width="1.5px" stroke-linecap="round" stroke-linejoin="round" fill="none"></path>
<path d="M2.62096 12.5158C2.50076 12.4765 2.36868 12.5134 2.28638 12.6095C2.20409 12.7055 2.1878 12.8417 2.24513 12.9545C2.30246 13.0672 2.42209 13.1343 2.54818 13.1244C2.67428 13.1144 2.78196 13.0295 2.82096 12.9092C2.87406 12.7454 2.78462 12.5694 2.62096 12.5158" stroke="#111111" stroke-width="1.5px" stroke-linecap="round" stroke-linejoin="round" fill="none"></path>
<path d="M1.0726 17.27C0.952346 17.2309 0.820412 17.2682 0.738349 17.3644C0.656285 17.4606 0.640264 17.5967 0.697759 17.7093C0.755254 17.8219 0.874935 17.8888 1.00097 17.8787C1.127 17.8687 1.23454 17.7836 1.27343 17.6633C1.29913 17.5845 1.29239 17.4988 1.25471 17.4249C1.21702 17.3511 1.15149 17.2954 1.0726 17.27" stroke="#111111" stroke-width="1.5px" stroke-linecap="round" stroke-linejoin="round" fill="none"></path>
</svg></defs><g>
<path d="M5.96167 5.625C5.96167 2.86358 8.20025 0.625 10.9617 0.625C13.7231 0.625 15.9617 2.86358 15.9617 5.625V19.375" stroke="#111111" stroke-width="1.5px" stroke-linecap="round" stroke-linejoin="round" fill="none"></path>
<path fill-rule="evenodd" clip-rule="evenodd" d="M2.21167 9.375C2.21167 7.30393 3.8906 5.625 5.96167 5.625C8.03274 5.625 9.71167 7.30393 9.71167 9.375H2.21167Z" stroke="#111111" stroke-width="1.5px" stroke-linecap="round" stroke-linejoin="round" fill="none"></path>
<path d="M5.96167 12.5C6.13426 12.5 6.27417 12.6399 6.27417 12.8125C6.27417 12.9851 6.13426 13.125 5.96167 13.125C5.78908 13.125 5.64917 12.9851 5.64917 12.8125C5.64917 12.6399 5.78908 12.5 5.96167 12.5" stroke="#111111" stroke-width="1.5px" stroke-linecap="round" stroke-linejoin="round" fill="none"></path>
<path d="M5.96167 17.5C6.13426 17.5 6.27417 17.6399 6.27417 17.8125C6.27417 17.9851 6.13426 18.125 5.96167 18.125C5.78908 18.125 5.64917 17.9851 5.64917 17.8125C5.64917 17.6399 5.78908 17.5 5.96167 17.5" stroke="#111111" stroke-width="1.5px" stroke-linecap="round" stroke-linejoin="round" fill="none"></path>
<path d="M9.30271 12.5158C9.42291 12.4765 9.55499 12.5134 9.63729 12.6095C9.71958 12.7055 9.73587 12.8417 9.67854 12.9545C9.62122 13.0672 9.50158 13.1343 9.37549 13.1244C9.24939 13.1144 9.14171 13.0295 9.10271 12.9092C9.04961 12.7454 9.13905 12.5694 9.30271 12.5158" stroke="#111111" stroke-width="1.5px" stroke-linecap="round" stroke-linejoin="round" fill="none"></path>
<path d="M10.8511 17.27C10.9713 17.2306 11.1033 17.2676 11.1856 17.3636C11.2679 17.4597 11.2842 17.5959 11.2269 17.7086C11.1696 17.8214 11.0499 17.8884 10.9238 17.8785C10.7977 17.8686 10.6901 17.7836 10.6511 17.6633C10.598 17.4995 10.6874 17.3236 10.8511 17.27" stroke="#111111" stroke-width="1.5px" stroke-linecap="round" stroke-linejoin="round" fill="none"></path>
<path d="M2.62096 12.5158C2.50076 12.4765 2.36868 12.5134 2.28638 12.6095C2.20409 12.7055 2.1878 12.8417 2.24513 12.9545C2.30246 13.0672 2.42209 13.1343 2.54818 13.1244C2.67428 13.1144 2.78196 13.0295 2.82096 12.9092C2.87406 12.7454 2.78462 12.5694 2.62096 12.5158" stroke="#111111" stroke-width="1.5px" stroke-linecap="round" stroke-linejoin="round" fill="none"></path>
<path d="M1.0726 17.27C0.952346 17.2309 0.820412 17.2682 0.738349 17.3644C0.656285 17.4606 0.640264 17.5967 0.697759 17.7093C0.755254 17.8219 0.874935 17.8888 1.00097 17.8787C1.127 17.8687 1.23454 17.7836 1.27343 17.6633C1.29913 17.5845 1.29239 17.4988 1.25471 17.4249C1.21702 17.3511 1.15149 17.2954 1.0726 17.27" stroke="#111111" stroke-width="1.5px" stroke-linecap="round" stroke-linejoin="round" fill="none"></path>
</g></svg>