<svg xmlns="http://www.w3.org/2000/svg" xmlns:xlink="http://www.w3.org/1999/xlink" style="width: 100%; height: 100%" viewBox="0 0 20 16" preserveAspectRatio="none" width="20" height="16"><defs><svg width="20" height="16" viewBox="0 0 20 16" fill="none" xmlns="http://www.w3.org/2000/svg" id="svg-767091662_1224">
<path d="M2.40015 7.375V5.5C2.40015 4.80964 2.9374 4.25 3.60015 4.25H8.40015C9.06289 4.25 9.60015 4.80964 9.60015 5.5V7.375" stroke="#111111" stroke-width="1.5px" stroke-linecap="round" stroke-linejoin="round" fill="none"></path>
<path d="M9.6001 7.375V5.5C9.6001 4.80964 10.1374 4.25 10.8001 4.25H15.6001C16.2628 4.25 16.8001 4.80964 16.8001 5.5V7.375" stroke="#111111" stroke-width="1.5px" stroke-linecap="round" stroke-linejoin="round" fill="none"></path>
<path fill-rule="evenodd" clip-rule="evenodd" d="M2.2001 7.375H17.0001C17.8838 7.375 18.6001 8.12119 18.6001 9.04167V13H0.600098V9.04167C0.600098 8.12119 1.31644 7.375 2.2001 7.375Z" stroke="#111111" stroke-width="1.5px" stroke-linecap="round" stroke-linejoin="round" fill="none"></path>
<path d="M0.600098 13V15.5" stroke="#111111" stroke-width="1.5px" stroke-linecap="round" stroke-linejoin="round" fill="none"></path>
<path d="M18.6001 13V15.5" stroke="#111111" stroke-width="1.5px" stroke-linecap="round" stroke-linejoin="round" fill="none"></path>
<path d="M16.8001 7.375V1.75C16.8001 1.05964 16.2629 0.5 15.6001 0.5H3.60015C2.9374 0.5 2.40015 1.05964 2.40015 1.75V7.375" stroke="#111111" stroke-width="1.5px" stroke-linecap="round" stroke-linejoin="round" fill="none"></path>
</svg></defs><g>
<path d="M2.40015 7.375V5.5C2.40015 4.80964 2.9374 4.25 3.60015 4.25H8.40015C9.06289 4.25 9.60015 4.80964 9.60015 5.5V7.375" stroke="#111111" stroke-width="1.5px" stroke-linecap="round" stroke-linejoin="round" fill="none"></path>
<path d="M9.6001 7.375V5.5C9.6001 4.80964 10.1374 4.25 10.8001 4.25H15.6001C16.2628 4.25 16.8001 4.80964 16.8001 5.5V7.375" stroke="#111111" stroke-width="1.5px" stroke-linecap="round" stroke-linejoin="round" fill="none"></path>
<path fill-rule="evenodd" clip-rule="evenodd" d="M2.2001 7.375H17.0001C17.8838 7.375 18.6001 8.12119 18.6001 9.04167V13H0.600098V9.04167C0.600098 8.12119 1.31644 7.375 2.2001 7.375Z" stroke="#111111" stroke-width="1.5px" stroke-linecap="round" stroke-linejoin="round" fill="none"></path>
<path d="M0.600098 13V15.5" stroke="#111111" stroke-width="1.5px" stroke-linecap="round" stroke-linejoin="round" fill="none"></path>
<path d="M18.6001 13V15.5" stroke="#111111" stroke-width="1.5px" stroke-linecap="round" stroke-linejoin="round" fill="none"></path>
<path d="M16.8001 7.375V1.75C16.8001 1.05964 16.2629 0.5 15.6001 0.5H3.60015C2.9374 0.5 2.40015 1.05964 2.40015 1.75V7.375" stroke="#111111" stroke-width="1.5px" stroke-linecap="round" stroke-linejoin="round" fill="none"></path>
</g></svg>