<svg xmlns="http://www.w3.org/2000/svg" xmlns:xlink="http://www.w3.org/1999/xlink" style="width: 100%; height: 100%" viewBox="0 0 24 24" preserveAspectRatio="none" width="24" height="24"><defs><svg width="24" height="24" fill="none" xmlns="http://www.w3.org/2000/svg" id="svg602817648_597"><path clip-rule="evenodd" d="M3 23.25a1.5 1.5 0 0 1-1.36-2.134l9-19.5a1.5 1.5 0 0 1 2.719 0l9 19.5a1.5 1.5 0 0 1-1.36 2.134H3Z" stroke="#000000" stroke-width="1.5px" stroke-linecap="round" stroke-linejoin="round" fill="none"></path><path clip-rule="evenodd" d="M7.5 23.25h9l-3.158-8.171a1.5 1.5 0 0 0-2.684 0L7.5 23.25Z" stroke="#000000" stroke-width="1.5px" stroke-linecap="round" stroke-linejoin="round" fill="none"></path><path d="M8.25 6.75h7.406m-9.462 4.5h11.612m-5.806 3v9" stroke="#000000" stroke-width="1.5px" stroke-linecap="round" stroke-linejoin="round" fill="none"></path></svg></defs><g><path clip-rule="evenodd" d="M3 23.25a1.5 1.5 0 0 1-1.36-2.134l9-19.5a1.5 1.5 0 0 1 2.719 0l9 19.5a1.5 1.5 0 0 1-1.36 2.134H3Z" stroke="#000000" stroke-width="1.5px" stroke-linecap="round" stroke-linejoin="round" fill="none"></path><path clip-rule="evenodd" d="M7.5 23.25h9l-3.158-8.171a1.5 1.5 0 0 0-2.684 0L7.5 23.25Z" stroke="#000000" stroke-width="1.5px" stroke-linecap="round" stroke-linejoin="round" fill="none"></path><path d="M8.25 6.75h7.406m-9.462 4.5h11.612m-5.806 3v9" stroke="#000000" stroke-width="1.5px" stroke-linecap="round" stroke-linejoin="round" fill="none"></path></g></svg>