<svg xmlns="http://www.w3.org/2000/svg" xmlns:xlink="http://www.w3.org/1999/xlink" style="width: 100%; height: 100%" viewBox="0 0 24 25" preserveAspectRatio="none" width="24" height="25"><defs><svg width="24" height="25" fill="none" xmlns="http://www.w3.org/2000/svg" id="svg1343181880_921"><path clip-rule="evenodd" d="M18.6 17.547a.729.729 0 0 0-.575-.281H5.98a.73.73 0 0 0-.708.907l.678 2.712A3.143 3.143 0 0 0 9 23.266h6c1.442 0 2.7-.982 3.049-2.381l.678-2.712a.726.726 0 0 0-.127-.626Z" stroke="#000000" stroke-width="1.5px" stroke-linecap="round" stroke-linejoin="round" fill="none"></path><path d="M12 .766v2.25M1.5 5.668l.75 1.299M4.5 5.668l-.75 1.299m4.007-4.701 1.415 1.75m7.071-1.75-1.415 1.75M22.5 7.168l-.75 1.299M19.5 7.168l.75 1.299" stroke="#000000" stroke-width="1.5px" stroke-linecap="round" stroke-linejoin="round" fill="none"></path><path clip-rule="evenodd" d="M21 8.266a1.5 1.5 0 0 0-1.5 1.5 1.5 1.5 0 0 1-1.5 1.5h-1.5v-3.75a4.5 4.5 0 1 0-9 0v2.25H6a1.5 1.5 0 0 1-1.5-1.5 1.5 1.5 0 1 0-3 0 4.5 4.5 0 0 0 4.5 4.5h1.5v4.5h9v-3H18a4.5 4.5 0 0 0 4.5-4.5 1.5 1.5 0 0 0-1.5-1.5Z" stroke="#000000" stroke-width="1.5px" stroke-linecap="round" stroke-linejoin="round" fill="none"></path></svg></defs><g><path clip-rule="evenodd" d="M18.6 17.547a.729.729 0 0 0-.575-.281H5.98a.73.73 0 0 0-.708.907l.678 2.712A3.143 3.143 0 0 0 9 23.266h6c1.442 0 2.7-.982 3.049-2.381l.678-2.712a.726.726 0 0 0-.127-.626Z" stroke="#000000" stroke-width="1.5px" stroke-linecap="round" stroke-linejoin="round" fill="none"></path><path d="M12 .766v2.25M1.5 5.668l.75 1.299M4.5 5.668l-.75 1.299m4.007-4.701 1.415 1.75m7.071-1.75-1.415 1.75M22.5 7.168l-.75 1.299M19.5 7.168l.75 1.299" stroke="#000000" stroke-width="1.5px" stroke-linecap="round" stroke-linejoin="round" fill="none"></path><path clip-rule="evenodd" d="M21 8.266a1.5 1.5 0 0 0-1.5 1.5 1.5 1.5 0 0 1-1.5 1.5h-1.5v-3.75a4.5 4.5 0 1 0-9 0v2.25H6a1.5 1.5 0 0 1-1.5-1.5 1.5 1.5 0 1 0-3 0 4.5 4.5 0 0 0 4.5 4.5h1.5v4.5h9v-3H18a4.5 4.5 0 0 0 4.5-4.5 1.5 1.5 0 0 0-1.5-1.5Z" stroke="#000000" stroke-width="1.5px" stroke-linecap="round" stroke-linejoin="round" fill="none"></path></g></svg>