<svg xmlns="http://www.w3.org/2000/svg" xmlns:xlink="http://www.w3.org/1999/xlink" style="width: 100%; height: 100%" viewBox="0 0 18 20" preserveAspectRatio="none" width="18" height="20"><defs><svg width="18" height="20" viewBox="0 0 18 20" fill="none" xmlns="http://www.w3.org/2000/svg" id="svg139911756_1408">
<path fill-rule="evenodd" clip-rule="evenodd" d="M4.62158 5.62335C6.00229 5.62335 7.12158 4.50406 7.12158 3.12335C7.12158 1.74264 6.00229 0.623352 4.62158 0.623352C3.24087 0.623352 2.12158 1.74264 2.12158 3.12335C2.12158 4.50406 3.24087 5.62335 4.62158 5.62335Z" stroke="#111111" stroke-width="1.5px" stroke-linecap="round" stroke-linejoin="round" fill="none"></path>
<path fill-rule="evenodd" clip-rule="evenodd" d="M9 11.25C9 8.83375 7.04125 6.875 4.625 6.875C2.20875 6.875 0.25 8.83375 0.25 11.25V13.125H2.125L2.75 19.375H6.5L7.125 13.125H9V11.25Z" stroke="#111111" stroke-width="1.5px" stroke-linecap="round" stroke-linejoin="round" fill="none"></path>
<path d="M12.1216 16.8742V10H16.4999C17.1903 10 17.7499 10.5596 17.7499 11.25V16.875C17.7499 17.5654 17.1903 18.125 16.4999 18.125H13.3749" stroke="#111111" stroke-width="1.5px" stroke-linecap="round" stroke-linejoin="round" fill="none"></path>
<path fill-rule="evenodd" clip-rule="evenodd" d="M12.1216 19.3734C12.8119 19.3734 13.3716 18.8137 13.3716 18.1234C13.3716 17.433 12.8119 16.8734 12.1216 16.8734C11.4312 16.8734 10.8716 17.433 10.8716 18.1234C10.8716 18.8137 11.4312 19.3734 12.1216 19.3734Z" stroke="#111111" stroke-width="1.5px" stroke-linecap="round" stroke-linejoin="round" fill="none"></path>
<path d="M12.1216 4.99835V9.99835" stroke="#111111" stroke-width="1.5px" stroke-linecap="round" stroke-linejoin="round" fill="none"></path>
</svg></defs><g>
<path fill-rule="evenodd" clip-rule="evenodd" d="M4.62158 5.62335C6.00229 5.62335 7.12158 4.50406 7.12158 3.12335C7.12158 1.74264 6.00229 0.623352 4.62158 0.623352C3.24087 0.623352 2.12158 1.74264 2.12158 3.12335C2.12158 4.50406 3.24087 5.62335 4.62158 5.62335Z" stroke="#111111" stroke-width="1.5px" stroke-linecap="round" stroke-linejoin="round" fill="none"></path>
<path fill-rule="evenodd" clip-rule="evenodd" d="M9 11.25C9 8.83375 7.04125 6.875 4.625 6.875C2.20875 6.875 0.25 8.83375 0.25 11.25V13.125H2.125L2.75 19.375H6.5L7.125 13.125H9V11.25Z" stroke="#111111" stroke-width="1.5px" stroke-linecap="round" stroke-linejoin="round" fill="none"></path>
<path d="M12.1216 16.8742V10H16.4999C17.1903 10 17.7499 10.5596 17.7499 11.25V16.875C17.7499 17.5654 17.1903 18.125 16.4999 18.125H13.3749" stroke="#111111" stroke-width="1.5px" stroke-linecap="round" stroke-linejoin="round" fill="none"></path>
<path fill-rule="evenodd" clip-rule="evenodd" d="M12.1216 19.3734C12.8119 19.3734 13.3716 18.8137 13.3716 18.1234C13.3716 17.433 12.8119 16.8734 12.1216 16.8734C11.4312 16.8734 10.8716 17.433 10.8716 18.1234C10.8716 18.8137 11.4312 19.3734 12.1216 19.3734Z" stroke="#111111" stroke-width="1.5px" stroke-linecap="round" stroke-linejoin="round" fill="none"></path>
<path d="M12.1216 4.99835V9.99835" stroke="#111111" stroke-width="1.5px" stroke-linecap="round" stroke-linejoin="round" fill="none"></path>
</g></svg>