<svg xmlns="http://www.w3.org/2000/svg" xmlns:xlink="http://www.w3.org/1999/xlink" style="width: 100%; height: 100%" viewBox="0 0 80 36" preserveAspectRatio="none" width="80" height="36"><defs><svg width="80" height="36" viewBox="0 0 80 36" fill="none" xmlns="http://www.w3.org/2000/svg" id="svg617128555_1535">
<rect width="36" height="36" rx="18" fill="#F5F5F4"></rect>
<path d="M12.6667 18V23.3333C12.6667 23.687 12.8072 24.0261 13.0573 24.2761C13.3073 24.5262 13.6465 24.6667 14.0001 24.6667H22.0001C22.3537 24.6667 22.6928 24.5262 22.9429 24.2761C23.1929 24.0261 23.3334 23.687 23.3334 23.3333V18" stroke="#111111" stroke-width="1.5px" stroke-linecap="round" stroke-linejoin="round" fill="none"></path>
<path d="M20.6666 14L17.9999 11.3333L15.3333 14" stroke="#111111" stroke-width="1.5px" stroke-linecap="round" stroke-linejoin="round" fill="none"></path>
<path d="M18 11.3333V20" stroke="#111111" stroke-width="1.5px" stroke-linecap="round" stroke-linejoin="round" fill="none"></path>
<rect x="44" width="36" height="36" rx="18" fill="#F5F5F4"></rect>
<path d="M67.8933 13.0733C67.5528 12.7327 67.1485 12.4624 66.7036 12.2781C66.2586 12.0937 65.7817 11.9988 65.3 11.9988C64.8183 11.9988 64.3414 12.0937 63.8964 12.2781C63.4515 12.4624 63.0472 12.7327 62.7067 13.0733L62 13.78L61.2933 13.0733C60.6055 12.3855 59.6727 11.9991 58.7 11.9991C57.7273 11.9991 56.7945 12.3855 56.1067 13.0733C55.4189 13.7611 55.0325 14.694 55.0325 15.6667C55.0325 16.6394 55.4189 17.5722 56.1067 18.26L56.8133 18.9667L62 24.1533L67.1867 18.9667L67.8933 18.26C68.234 17.9195 68.5042 17.5152 68.6886 17.0702C68.873 16.6253 68.9679 16.1483 68.9679 15.6667C68.9679 15.185 68.873 14.7081 68.6886 14.2631C68.5042 13.8181 68.234 13.4138 67.8933 13.0733Z" stroke="#111111" stroke-width="1.5px" stroke-linecap="round" stroke-linejoin="round" fill="none"></path>
</svg></defs><g>
<rect width="36" height="36" rx="18" fill="#F5F5F4"></rect>
<path d="M12.6667 18V23.3333C12.6667 23.687 12.8072 24.0261 13.0573 24.2761C13.3073 24.5262 13.6465 24.6667 14.0001 24.6667H22.0001C22.3537 24.6667 22.6928 24.5262 22.9429 24.2761C23.1929 24.0261 23.3334 23.687 23.3334 23.3333V18" stroke="#111111" stroke-width="1.5px" stroke-linecap="round" stroke-linejoin="round" fill="none"></path>
<path d="M20.6666 14L17.9999 11.3333L15.3333 14" stroke="#111111" stroke-width="1.5px" stroke-linecap="round" stroke-linejoin="round" fill="none"></path>
<path d="M18 11.3333V20" stroke="#111111" stroke-width="1.5px" stroke-linecap="round" stroke-linejoin="round" fill="none"></path>
<rect x="44" width="36" height="36" rx="18" fill="#F5F5F4"></rect>
<path d="M67.8933 13.0733C67.5528 12.7327 67.1485 12.4624 66.7036 12.2781C66.2586 12.0937 65.7817 11.9988 65.3 11.9988C64.8183 11.9988 64.3414 12.0937 63.8964 12.2781C63.4515 12.4624 63.0472 12.7327 62.7067 13.0733L62 13.78L61.2933 13.0733C60.6055 12.3855 59.6727 11.9991 58.7 11.9991C57.7273 11.9991 56.7945 12.3855 56.1067 13.0733C55.4189 13.7611 55.0325 14.694 55.0325 15.6667C55.0325 16.6394 55.4189 17.5722 56.1067 18.26L56.8133 18.9667L62 24.1533L67.1867 18.9667L67.8933 18.26C68.234 17.9195 68.5042 17.5152 68.6886 17.0702C68.873 16.6253 68.9679 16.1483 68.9679 15.6667C68.9679 15.185 68.873 14.7081 68.6886 14.2631C68.5042 13.8181 68.234 13.4138 67.8933 13.0733Z" stroke="#111111" stroke-width="1.5px" stroke-linecap="round" stroke-linejoin="round" fill="none"></path>
</g></svg>