<svg xmlns="http://www.w3.org/2000/svg" xmlns:xlink="http://www.w3.org/1999/xlink" style="width: 100%; height: 100%" viewBox="0 0 24 24" preserveAspectRatio="none" width="24" height="24"><defs><svg width="24" height="24" viewBox="0 0 24 24" fill="none" xmlns="http://www.w3.org/2000/svg" id="svg554295883_3826">
<path d="M23.0635 17.0326C22.9558 16.7305 22.8298 16.4382 22.7101 16.1674C22.5257 15.7508 22.3326 15.3334 22.1458 14.93L22.131 14.898C20.465 11.2942 18.6769 7.64107 16.8164 4.04026L16.7374 3.88737C16.5476 3.51967 16.3514 3.13947 16.1501 2.76589C15.9113 2.29312 15.6216 1.8477 15.286 1.43751C14.9083 0.987382 14.4361 0.625366 13.9028 0.37699C13.3695 0.128614 12.788 -7.37969e-05 12.1994 3.17487e-08C11.6108 7.38603e-05 11.0293 0.128908 10.496 0.377418C9.96283 0.625928 9.49072 0.988064 9.11314 1.43828C8.77798 1.84857 8.48842 2.2939 8.24958 2.76643C8.04648 3.14336 7.84844 3.52708 7.65695 3.89818L7.58361 4.04022C5.72303 7.6413 3.93492 11.2944 2.26898 14.8979L2.2447 14.9503C2.06114 15.3472 1.87136 15.7576 1.69005 16.1672C1.57023 16.4378 1.44448 16.7299 1.33663 17.0327C1.02771 17.8578 0.929271 18.7465 1.05016 19.6189C1.17836 20.5005 1.53533 21.3335 2.08571 22.0353C2.63609 22.7371 3.36079 23.2833 4.18803 23.6199C4.81286 23.8724 5.48095 24.0015 6.15516 24C6.36694 23.9999 6.57855 23.9876 6.78892 23.9632C7.64163 23.8546 8.46404 23.5774 9.20789 23.1479C10.1836 22.6003 11.1473 21.7978 12.2 20.6511C13.2527 21.7978 14.2164 22.6003 15.1921 23.1479C15.9359 23.5775 16.7584 23.8546 17.6111 23.9632C17.8214 23.9876 18.0331 23.9999 18.2449 24C18.919 24.0015 19.587 23.8724 20.2119 23.6199C21.0391 23.2833 21.7639 22.7371 22.3143 22.0353C22.8647 21.3335 23.2217 20.5006 23.3499 19.6189C23.4707 18.7464 23.3722 17.8577 23.0635 17.0326ZM12.2 18.2827C10.8968 16.6327 10.0606 15.1003 9.76717 13.8157C9.64696 13.3344 9.61858 12.8348 9.68353 12.343C9.73481 11.9824 9.8674 11.6382 10.0713 11.3361C10.3222 11.011 10.6447 10.7478 11.0138 10.5667C11.3829 10.3856 11.7888 10.2914 12.2002 10.2914C12.6116 10.2915 13.0174 10.3857 13.3865 10.5669C13.7556 10.748 14.078 11.0113 14.3289 11.3363C14.5328 11.6386 14.6654 11.9828 14.7167 12.3434C14.7815 12.8355 14.753 13.3352 14.6326 13.8167C14.3389 15.1012 13.5029 16.633 12.2 18.2827ZM21.8278 19.4017C21.7382 20.0181 21.4885 20.6005 21.1037 21.0912C20.7189 21.5819 20.2122 21.9639 19.6337 22.1992C19.0489 22.4333 18.4141 22.5163 17.7886 22.4404C17.1383 22.3567 16.5116 22.1429 15.9462 21.8118C15.0777 21.3244 14.1985 20.5761 13.2092 19.4784C14.7841 17.5384 15.7676 15.7504 16.1318 14.1577C16.2957 13.488 16.3312 12.7934 16.2365 12.1106C16.1506 11.5224 15.932 10.9612 15.5971 10.4695C15.2048 9.93892 14.6931 9.5076 14.1031 9.21037C13.513 8.91315 12.8612 8.75827 12.2002 8.75827C11.5391 8.75827 10.8873 8.91307 10.2972 9.21022C9.70718 9.50737 9.19543 9.93862 8.80313 10.4692C8.46832 10.9608 8.24972 11.5218 8.16374 12.1099C8.06902 12.7924 8.10436 13.4866 8.26789 14.1562C8.6318 15.7495 9.61535 17.538 11.1908 19.4785C10.2015 20.5761 9.32231 21.3244 8.45377 21.8119C7.88841 22.1429 7.26178 22.3567 6.61149 22.4404C5.98584 22.5163 5.35111 22.4333 4.7662 22.1992C4.18778 21.9639 3.68107 21.5819 3.29625 21.0913C2.91144 20.6005 2.66187 20.0181 2.57227 19.4017C2.48609 18.775 2.55943 18.1369 2.78555 17.5459C2.87151 17.3046 2.97209 17.0677 3.0967 16.7863C3.27299 16.3882 3.46007 15.9836 3.64103 15.5923L3.66533 15.5398C5.32196 11.9564 7.10016 8.32365 8.95059 4.7422L9.02424 4.59962C9.21262 4.23451 9.40746 3.857 9.60402 3.49222C9.79202 3.11626 10.0196 2.76128 10.2829 2.4333C10.5162 2.15177 10.809 1.92511 11.1403 1.7695C11.4717 1.61389 11.8335 1.53319 12.1997 1.53316C12.5659 1.53313 12.9278 1.61378 13.2591 1.76933C13.5905 1.92488 13.8833 2.1515 14.1167 2.43299C14.3801 2.76073 14.6078 3.11558 14.7956 3.49153C14.9904 3.85306 15.1835 4.22717 15.3703 4.58893L15.4494 4.74236C17.2998 8.32342 19.0779 11.9561 20.7347 15.5401L20.7497 15.5723C20.9338 15.9702 21.1241 16.3814 21.3033 16.7865C21.4281 17.0683 21.5289 17.3053 21.6146 17.5458C21.8406 18.1368 21.9139 18.775 21.8278 19.4017Z" fill="#121212"></path>
</svg></defs><g>
<path d="M23.0635 17.0326C22.9558 16.7305 22.8298 16.4382 22.7101 16.1674C22.5257 15.7508 22.3326 15.3334 22.1458 14.93L22.131 14.898C20.465 11.2942 18.6769 7.64107 16.8164 4.04026L16.7374 3.88737C16.5476 3.51967 16.3514 3.13947 16.1501 2.76589C15.9113 2.29312 15.6216 1.8477 15.286 1.43751C14.9083 0.987382 14.4361 0.625366 13.9028 0.37699C13.3695 0.128614 12.788 -7.37969e-05 12.1994 3.17487e-08C11.6108 7.38603e-05 11.0293 0.128908 10.496 0.377418C9.96283 0.625928 9.49072 0.988064 9.11314 1.43828C8.77798 1.84857 8.48842 2.2939 8.24958 2.76643C8.04648 3.14336 7.84844 3.52708 7.65695 3.89818L7.58361 4.04022C5.72303 7.6413 3.93492 11.2944 2.26898 14.8979L2.2447 14.9503C2.06114 15.3472 1.87136 15.7576 1.69005 16.1672C1.57023 16.4378 1.44448 16.7299 1.33663 17.0327C1.02771 17.8578 0.929271 18.7465 1.05016 19.6189C1.17836 20.5005 1.53533 21.3335 2.08571 22.0353C2.63609 22.7371 3.36079 23.2833 4.18803 23.6199C4.81286 23.8724 5.48095 24.0015 6.15516 24C6.36694 23.9999 6.57855 23.9876 6.78892 23.9632C7.64163 23.8546 8.46404 23.5774 9.20789 23.1479C10.1836 22.6003 11.1473 21.7978 12.2 20.6511C13.2527 21.7978 14.2164 22.6003 15.1921 23.1479C15.9359 23.5775 16.7584 23.8546 17.6111 23.9632C17.8214 23.9876 18.0331 23.9999 18.2449 24C18.919 24.0015 19.587 23.8724 20.2119 23.6199C21.0391 23.2833 21.7639 22.7371 22.3143 22.0353C22.8647 21.3335 23.2217 20.5006 23.3499 19.6189C23.4707 18.7464 23.3722 17.8577 23.0635 17.0326ZM12.2 18.2827C10.8968 16.6327 10.0606 15.1003 9.76717 13.8157C9.64696 13.3344 9.61858 12.8348 9.68353 12.343C9.73481 11.9824 9.8674 11.6382 10.0713 11.3361C10.3222 11.011 10.6447 10.7478 11.0138 10.5667C11.3829 10.3856 11.7888 10.2914 12.2002 10.2914C12.6116 10.2915 13.0174 10.3857 13.3865 10.5669C13.7556 10.748 14.078 11.0113 14.3289 11.3363C14.5328 11.6386 14.6654 11.9828 14.7167 12.3434C14.7815 12.8355 14.753 13.3352 14.6326 13.8167C14.3389 15.1012 13.5029 16.633 12.2 18.2827ZM21.8278 19.4017C21.7382 20.0181 21.4885 20.6005 21.1037 21.0912C20.7189 21.5819 20.2122 21.9639 19.6337 22.1992C19.0489 22.4333 18.4141 22.5163 17.7886 22.4404C17.1383 22.3567 16.5116 22.1429 15.9462 21.8118C15.0777 21.3244 14.1985 20.5761 13.2092 19.4784C14.7841 17.5384 15.7676 15.7504 16.1318 14.1577C16.2957 13.488 16.3312 12.7934 16.2365 12.1106C16.1506 11.5224 15.932 10.9612 15.5971 10.4695C15.2048 9.93892 14.6931 9.5076 14.1031 9.21037C13.513 8.91315 12.8612 8.75827 12.2002 8.75827C11.5391 8.75827 10.8873 8.91307 10.2972 9.21022C9.70718 9.50737 9.19543 9.93862 8.80313 10.4692C8.46832 10.9608 8.24972 11.5218 8.16374 12.1099C8.06902 12.7924 8.10436 13.4866 8.26789 14.1562C8.6318 15.7495 9.61535 17.538 11.1908 19.4785C10.2015 20.5761 9.32231 21.3244 8.45377 21.8119C7.88841 22.1429 7.26178 22.3567 6.61149 22.4404C5.98584 22.5163 5.35111 22.4333 4.7662 22.1992C4.18778 21.9639 3.68107 21.5819 3.29625 21.0913C2.91144 20.6005 2.66187 20.0181 2.57227 19.4017C2.48609 18.775 2.55943 18.1369 2.78555 17.5459C2.87151 17.3046 2.97209 17.0677 3.0967 16.7863C3.27299 16.3882 3.46007 15.9836 3.64103 15.5923L3.66533 15.5398C5.32196 11.9564 7.10016 8.32365 8.95059 4.7422L9.02424 4.59962C9.21262 4.23451 9.40746 3.857 9.60402 3.49222C9.79202 3.11626 10.0196 2.76128 10.2829 2.4333C10.5162 2.15177 10.809 1.92511 11.1403 1.7695C11.4717 1.61389 11.8335 1.53319 12.1997 1.53316C12.5659 1.53313 12.9278 1.61378 13.2591 1.76933C13.5905 1.92488 13.8833 2.1515 14.1167 2.43299C14.3801 2.76073 14.6078 3.11558 14.7956 3.49153C14.9904 3.85306 15.1835 4.22717 15.3703 4.58893L15.4494 4.74236C17.2998 8.32342 19.0779 11.9561 20.7347 15.5401L20.7497 15.5723C20.9338 15.9702 21.1241 16.3814 21.3033 16.7865C21.4281 17.0683 21.5289 17.3053 21.6146 17.5458C21.8406 18.1368 21.9139 18.775 21.8278 19.4017Z" fill="#121212"></path>
</g></svg>