<svg xmlns="http://www.w3.org/2000/svg" xmlns:xlink="http://www.w3.org/1999/xlink" style="width: 100%; height: 100%" viewBox="0 0 24 24" preserveAspectRatio="none" width="24" height="24"><defs><svg width="24" height="24" fill="none" xmlns="http://www.w3.org/2000/svg" id="svg1447657479_705"><path clip-rule="evenodd" d="M18.423 9.971a2.25 2.25 0 1 0 0-4.5 2.25 2.25 0 0 0 0 4.5ZM4.831 3.428a.746.746 0 0 1 .368.3l2.544 3.986 5.851 2.2c.244.093.46.247.627.447l3.86 4.655a1.5 1.5 0 1 1-2.31 1.915l-3.605-4.351-5.946-2.233a1.5 1.5 0 0 1-.736-.6L1.6 3.653a.75.75 0 0 1 .9-1.1l2.331.875Z" stroke="#000000" stroke-width="1.5px" stroke-linecap="round" stroke-linejoin="round" fill="none"></path><path d="m9.163 8.247-1.055 2.809m-.935-4.235-2.76 1.252M.75 21.672a4.668 4.668 0 0 0 3.75-1.9 4.649 4.649 0 0 0 7.5 0 4.65 4.65 0 0 0 7.5 0 4.668 4.668 0 0 0 3.75 1.9" stroke="#000000" stroke-width="1.5px" stroke-linecap="round" stroke-linejoin="round" fill="none"></path></svg></defs><g><path clip-rule="evenodd" d="M18.423 9.971a2.25 2.25 0 1 0 0-4.5 2.25 2.25 0 0 0 0 4.5ZM4.831 3.428a.746.746 0 0 1 .368.3l2.544 3.986 5.851 2.2c.244.093.46.247.627.447l3.86 4.655a1.5 1.5 0 1 1-2.31 1.915l-3.605-4.351-5.946-2.233a1.5 1.5 0 0 1-.736-.6L1.6 3.653a.75.75 0 0 1 .9-1.1l2.331.875Z" stroke="#000000" stroke-width="1.5px" stroke-linecap="round" stroke-linejoin="round" fill="none"></path><path d="m9.163 8.247-1.055 2.809m-.935-4.235-2.76 1.252M.75 21.672a4.668 4.668 0 0 0 3.75-1.9 4.649 4.649 0 0 0 7.5 0 4.65 4.65 0 0 0 7.5 0 4.668 4.668 0 0 0 3.75 1.9" stroke="#000000" stroke-width="1.5px" stroke-linecap="round" stroke-linejoin="round" fill="none"></path></g></svg>