<svg xmlns="http://www.w3.org/2000/svg" xmlns:xlink="http://www.w3.org/1999/xlink" style="width: 100%; height: 100%" viewBox="0 0 20 20" preserveAspectRatio="none" width="20" height="20"><defs><svg width="20" height="20" viewBox="0 0 20 20" fill="none" xmlns="http://www.w3.org/2000/svg" id="svg115284123_861">
<path d="M0.625 6.875L10 0.625L19.375 6.875" stroke="#111111" stroke-width="1.5px" stroke-linecap="round" stroke-linejoin="round" fill="none"></path>
<path d="M1.875 15.625H18.125V19.375H1.875V10.625" stroke="#111111" stroke-width="1.5px" stroke-linecap="round" stroke-linejoin="round" fill="none"></path>
<path fill-rule="evenodd" clip-rule="evenodd" d="M4.375 11.875H1.875V15.625H6.875V14.375C6.875 12.9943 5.75571 11.875 4.375 11.875Z" stroke="#111111" stroke-width="1.5px" stroke-linecap="round" stroke-linejoin="round" fill="none"></path>
<path fill-rule="evenodd" clip-rule="evenodd" d="M15.625 11.875H11.6925C10.272 11.875 8.97346 12.6777 8.33833 13.9483L7.5 15.625H18.125V14.375C18.125 12.9943 17.0057 11.875 15.625 11.875Z" stroke="#111111" stroke-width="1.5px" stroke-linecap="round" stroke-linejoin="round" fill="none"></path>
</svg></defs><g>
<path d="M0.625 6.875L10 0.625L19.375 6.875" stroke="#111111" stroke-width="1.5px" stroke-linecap="round" stroke-linejoin="round" fill="none"></path>
<path d="M1.875 15.625H18.125V19.375H1.875V10.625" stroke="#111111" stroke-width="1.5px" stroke-linecap="round" stroke-linejoin="round" fill="none"></path>
<path fill-rule="evenodd" clip-rule="evenodd" d="M4.375 11.875H1.875V15.625H6.875V14.375C6.875 12.9943 5.75571 11.875 4.375 11.875Z" stroke="#111111" stroke-width="1.5px" stroke-linecap="round" stroke-linejoin="round" fill="none"></path>
<path fill-rule="evenodd" clip-rule="evenodd" d="M15.625 11.875H11.6925C10.272 11.875 8.97346 12.6777 8.33833 13.9483L7.5 15.625H18.125V14.375C18.125 12.9943 17.0057 11.875 15.625 11.875Z" stroke="#111111" stroke-width="1.5px" stroke-linecap="round" stroke-linejoin="round" fill="none"></path>
</g></svg>