<svg xmlns="http://www.w3.org/2000/svg" xmlns:xlink="http://www.w3.org/1999/xlink" style="width: 100%; height: 100%" viewBox="0 0 16 16" preserveAspectRatio="none" width="16" height="16"><defs><svg width="16" height="16" viewBox="0 0 16 16" fill="none" xmlns="http://www.w3.org/2000/svg" id="svg1887461345_778">
<path d="M7.52772 1.35869C7.68337 0.910913 8.31663 0.910914 8.47228 1.35869L9.76668 5.0825C9.83534 5.28004 10.0197 5.41397 10.2288 5.41823L14.1703 5.49856C14.6443 5.50822 14.84 6.11049 14.4622 6.39689L11.3206 8.77865C11.154 8.905 11.0836 9.12171 11.1441 9.32188L12.2857 13.0953C12.423 13.5491 11.9107 13.9213 11.5216 13.6505L8.28559 11.3987C8.11393 11.2793 7.88607 11.2793 7.71441 11.3987L4.47842 13.6505C4.0893 13.9213 3.57698 13.5491 3.71425 13.0953L4.85587 9.32188C4.91643 9.12171 4.84601 8.905 4.67936 8.77865L1.5378 6.39689C1.16003 6.11049 1.35572 5.50822 1.82969 5.49856L5.77123 5.41823C5.98031 5.41397 6.16466 5.28004 6.23332 5.0825L7.52772 1.35869Z" fill="#111111"></path>
</svg></defs><g>
<path d="M7.52772 1.35869C7.68337 0.910913 8.31663 0.910914 8.47228 1.35869L9.76668 5.0825C9.83534 5.28004 10.0197 5.41397 10.2288 5.41823L14.1703 5.49856C14.6443 5.50822 14.84 6.11049 14.4622 6.39689L11.3206 8.77865C11.154 8.905 11.0836 9.12171 11.1441 9.32188L12.2857 13.0953C12.423 13.5491 11.9107 13.9213 11.5216 13.6505L8.28559 11.3987C8.11393 11.2793 7.88607 11.2793 7.71441 11.3987L4.47842 13.6505C4.0893 13.9213 3.57698 13.5491 3.71425 13.0953L4.85587 9.32188C4.91643 9.12171 4.84601 8.905 4.67936 8.77865L1.5378 6.39689C1.16003 6.11049 1.35572 5.50822 1.82969 5.49856L5.77123 5.41823C5.98031 5.41397 6.16466 5.28004 6.23332 5.0825L7.52772 1.35869Z" fill="#111111"></path>
</g></svg>