<svg xmlns="http://www.w3.org/2000/svg" xmlns:xlink="http://www.w3.org/1999/xlink" style="width: 100%; height: 100%" viewBox="0 0 24 24" preserveAspectRatio="none" width="24" height="24"><defs><svg width="24" height="24" fill="none" xmlns="http://www.w3.org/2000/svg" id="svg1630272397_1076"><path d="M.788 20.571H23.25" stroke="#000000" stroke-width="1.5px" stroke-linecap="round" stroke-linejoin="round" fill="none"></path><path clip-rule="evenodd" d="M9.773 20.571H2.286v-9.733l7.487-1.497v11.23Zm11.98 0H9.773V4.101l11.98 5.24v11.23Z" stroke="#000000" stroke-width="1.5px" stroke-linecap="round" stroke-linejoin="round" fill="none"></path><path d="M12.768 8.967a.374.374 0 0 1 .374.374m-.749 0c0-.207.168-.374.375-.374m0 .749a.375.375 0 0 1-.375-.375" stroke="#000000" stroke-width="1.5px" stroke-linecap="round" stroke-linejoin="round" fill="none"></path><path d="M13.142 9.341a.374.374 0 0 1-.374.375" stroke="#000000" stroke-width="1.5px" stroke-linecap="round" stroke-linejoin="round" fill="none"></path><path clip-rule="evenodd" d="M18.758 20.571h-5.99v-4.492a1.5 1.5 0 0 1 1.5-1.5h3a1.5 1.5 0 0 1 1.5 1.5l-.01 4.492Z" stroke="#000000" stroke-width="1.5px" stroke-linecap="round" stroke-linejoin="round" fill="none"></path><path d="m.75 11.146 9.023-1.805M8.238 3.429l15.008 6.565m-4.488-1.972V4.101h2.995v5.24" stroke="#000000" stroke-width="1.5px" stroke-linecap="round" stroke-linejoin="round" fill="none"></path></svg></defs><g><path d="M.788 20.571H23.25" stroke="#000000" stroke-width="1.5px" stroke-linecap="round" stroke-linejoin="round" fill="none"></path><path clip-rule="evenodd" d="M9.773 20.571H2.286v-9.733l7.487-1.497v11.23Zm11.98 0H9.773V4.101l11.98 5.24v11.23Z" stroke="#000000" stroke-width="1.5px" stroke-linecap="round" stroke-linejoin="round" fill="none"></path><path d="M12.768 8.967a.374.374 0 0 1 .374.374m-.749 0c0-.207.168-.374.375-.374m0 .749a.375.375 0 0 1-.375-.375" stroke="#000000" stroke-width="1.5px" stroke-linecap="round" stroke-linejoin="round" fill="none"></path><path d="M13.142 9.341a.374.374 0 0 1-.374.375" stroke="#000000" stroke-width="1.5px" stroke-linecap="round" stroke-linejoin="round" fill="none"></path><path clip-rule="evenodd" d="M18.758 20.571h-5.99v-4.492a1.5 1.5 0 0 1 1.5-1.5h3a1.5 1.5 0 0 1 1.5 1.5l-.01 4.492Z" stroke="#000000" stroke-width="1.5px" stroke-linecap="round" stroke-linejoin="round" fill="none"></path><path d="m.75 11.146 9.023-1.805M8.238 3.429l15.008 6.565m-4.488-1.972V4.101h2.995v5.24" stroke="#000000" stroke-width="1.5px" stroke-linecap="round" stroke-linejoin="round" fill="none"></path></g></svg>