<svg xmlns="http://www.w3.org/2000/svg" xmlns:xlink="http://www.w3.org/1999/xlink" style="width: 100%; height: 100%" viewBox="0 0 24 24" preserveAspectRatio="none" width="24" height="24"><defs><svg width="24" height="24" fill="none" xmlns="http://www.w3.org/2000/svg" id="svg1864590514_464"><path clip-rule="evenodd" d="M21.25 21.75a1.5 1.5 0 0 1-1.5 1.5h-15a1.5 1.5 0 0 1-1.5-1.5v-12a9 9 0 0 1 18 0v12Z" stroke="#000000" stroke-width="1.5px" stroke-linecap="round" stroke-linejoin="round" fill="none"></path><path d="M3.25 9.75h18m-18 6h18m-9-6v-9m-3 9v13.5m6-13.5v13.5M5.56 3.729l6.69 6.021m6.69-6.021L12.25 9.75" stroke="#000000" stroke-width="1.5px" stroke-linecap="round" stroke-linejoin="round" fill="none"></path></svg></defs><g><path clip-rule="evenodd" d="M21.25 21.75a1.5 1.5 0 0 1-1.5 1.5h-15a1.5 1.5 0 0 1-1.5-1.5v-12a9 9 0 0 1 18 0v12Z" stroke="#000000" stroke-width="1.5px" stroke-linecap="round" stroke-linejoin="round" fill="none"></path><path d="M3.25 9.75h18m-18 6h18m-9-6v-9m-3 9v13.5m6-13.5v13.5M5.56 3.729l6.69 6.021m6.69-6.021L12.25 9.75" stroke="#000000" stroke-width="1.5px" stroke-linecap="round" stroke-linejoin="round" fill="none"></path></g></svg>