<svg xmlns="http://www.w3.org/2000/svg" xmlns:xlink="http://www.w3.org/1999/xlink" style="width: 100%; height: 100%" viewBox="0 0 24 24" preserveAspectRatio="none" width="24" height="24"><defs><svg width="24" height="24" fill="none" xmlns="http://www.w3.org/2000/svg" id="svg181412826_735"><path d="M13.5.75a2.728 2.728 0 0 0-1.66 3.009" stroke="#000000" stroke-width="1.5px" stroke-linecap="round" stroke-linejoin="round" fill="none"></path><path clip-rule="evenodd" d="M5.25 11.25a2.25 2.25 0 1 0 0-4.5 2.25 2.25 0 0 0 0 4.5Zm6.75 0a2.25 2.25 0 1 0 0-4.5 2.25 2.25 0 0 0 0 4.5Zm0 12a2.25 2.25 0 1 0 0-4.5 2.25 2.25 0 0 0 0 4.5Zm-3.75-6a2.25 2.25 0 1 0 0-4.5 2.25 2.25 0 0 0 0 4.5Zm7.5 0a2.25 2.25 0 1 0 0-4.5 2.25 2.25 0 0 0 0 4.5Zm3-6a2.25 2.25 0 1 0 0-4.5 2.25 2.25 0 0 0 0 4.5Z" stroke="#000000" stroke-width="1.5px" stroke-linecap="round" stroke-linejoin="round" fill="none"></path><path d="M9.75.75h6" stroke="#000000" stroke-width="1.5px" stroke-linecap="round" stroke-linejoin="round" fill="none"></path></svg></defs><g><path d="M13.5.75a2.728 2.728 0 0 0-1.66 3.009" stroke="#000000" stroke-width="1.5px" stroke-linecap="round" stroke-linejoin="round" fill="none"></path><path clip-rule="evenodd" d="M5.25 11.25a2.25 2.25 0 1 0 0-4.5 2.25 2.25 0 0 0 0 4.5Zm6.75 0a2.25 2.25 0 1 0 0-4.5 2.25 2.25 0 0 0 0 4.5Zm0 12a2.25 2.25 0 1 0 0-4.5 2.25 2.25 0 0 0 0 4.5Zm-3.75-6a2.25 2.25 0 1 0 0-4.5 2.25 2.25 0 0 0 0 4.5Zm7.5 0a2.25 2.25 0 1 0 0-4.5 2.25 2.25 0 0 0 0 4.5Zm3-6a2.25 2.25 0 1 0 0-4.5 2.25 2.25 0 0 0 0 4.5Z" stroke="#000000" stroke-width="1.5px" stroke-linecap="round" stroke-linejoin="round" fill="none"></path><path d="M9.75.75h6" stroke="#000000" stroke-width="1.5px" stroke-linecap="round" stroke-linejoin="round" fill="none"></path></g></svg>