<svg xmlns="http://www.w3.org/2000/svg" xmlns:xlink="http://www.w3.org/1999/xlink" style="width: 100%; height: 100%" viewBox="0 0 20 20" preserveAspectRatio="none" width="20" height="20"><defs><svg width="20" height="20" viewBox="0 0 20 20" fill="none" xmlns="http://www.w3.org/2000/svg" id="svg1046669344_748">
<path d="M15.8333 3.33334H4.16667C3.24619 3.33334 2.5 4.07953 2.5 5V16.6667C2.5 17.5871 3.24619 18.3333 4.16667 18.3333H15.8333C16.7538 18.3333 17.5 17.5871 17.5 16.6667V5C17.5 4.07953 16.7538 3.33334 15.8333 3.33334Z" stroke="#717171" stroke-width="1.5px" stroke-linecap="round" stroke-linejoin="round" fill="none"></path>
<path d="M13.3333 1.66666V5" stroke="#717171" stroke-width="1.5px" stroke-linecap="round" stroke-linejoin="round" fill="none"></path>
<path d="M6.66669 1.66666V5" stroke="#717171" stroke-width="1.5px" stroke-linecap="round" stroke-linejoin="round" fill="none"></path>
<path d="M2.5 8.33334H17.5" stroke="#717171" stroke-width="1.5px" stroke-linecap="round" stroke-linejoin="round" fill="none"></path>
</svg></defs><g>
<path d="M15.8333 3.33334H4.16667C3.24619 3.33334 2.5 4.07953 2.5 5V16.6667C2.5 17.5871 3.24619 18.3333 4.16667 18.3333H15.8333C16.7538 18.3333 17.5 17.5871 17.5 16.6667V5C17.5 4.07953 16.7538 3.33334 15.8333 3.33334Z" stroke="#717171" stroke-width="1.5px" stroke-linecap="round" stroke-linejoin="round" fill="none"></path>
<path d="M13.3333 1.66666V5" stroke="#717171" stroke-width="1.5px" stroke-linecap="round" stroke-linejoin="round" fill="none"></path>
<path d="M6.66669 1.66666V5" stroke="#717171" stroke-width="1.5px" stroke-linecap="round" stroke-linejoin="round" fill="none"></path>
<path d="M2.5 8.33334H17.5" stroke="#717171" stroke-width="1.5px" stroke-linecap="round" stroke-linejoin="round" fill="none"></path>
</g></svg>