<svg xmlns="http://www.w3.org/2000/svg" xmlns:xlink="http://www.w3.org/1999/xlink" style="width: 100%; height: 100%" viewBox="0 0 24 25" preserveAspectRatio="none" width="24" height="25"><defs><svg width="24" height="25" fill="none" xmlns="http://www.w3.org/2000/svg" id="svg-264235133_850"><path clip-rule="evenodd" d="M19.5 1.72c.414 0 .75.322.75.72V8.2c0 .398-.336.72-.75.72h-15c-.414 0-.75-.322-.75-.72V2.44c0-.398.336-.72.75-.72h2.25c.414 0 .75.322.75.72v.72c0 .795.672 1.44 1.5 1.44s1.5-.645 1.5-1.44v-.72c0-.398.336-.72.75-.72h1.5c.414 0 .75.322.75.72v.72c0 .795.672 1.44 1.5 1.44s1.5-.645 1.5-1.44v-.72c0-.398.336-.72.75-.72h2.25ZM5.25 8.92l-1.5 14.4h16.5l-1.5-14.4H5.25v0Z" stroke="#000000" stroke-width="1.5px" stroke-linecap="round" stroke-linejoin="round" fill="none"></path><path clip-rule="evenodd" d="M14.25 23.32h-4.5v-5.04c0-1.193 1.007-2.16 2.25-2.16s2.25.967 2.25 2.16v5.04Z" stroke="#000000" stroke-width="1.5px" stroke-linecap="round" stroke-linejoin="round" fill="none"></path><path d="M.75 23.32h22.5" stroke="#000000" stroke-width="1.5px" stroke-linecap="round" stroke-linejoin="round" fill="none"></path></svg></defs><g><path clip-rule="evenodd" d="M19.5 1.72c.414 0 .75.322.75.72V8.2c0 .398-.336.72-.75.72h-15c-.414 0-.75-.322-.75-.72V2.44c0-.398.336-.72.75-.72h2.25c.414 0 .75.322.75.72v.72c0 .795.672 1.44 1.5 1.44s1.5-.645 1.5-1.44v-.72c0-.398.336-.72.75-.72h1.5c.414 0 .75.322.75.72v.72c0 .795.672 1.44 1.5 1.44s1.5-.645 1.5-1.44v-.72c0-.398.336-.72.75-.72h2.25ZM5.25 8.92l-1.5 14.4h16.5l-1.5-14.4H5.25v0Z" stroke="#000000" stroke-width="1.5px" stroke-linecap="round" stroke-linejoin="round" fill="none"></path><path clip-rule="evenodd" d="M14.25 23.32h-4.5v-5.04c0-1.193 1.007-2.16 2.25-2.16s2.25.967 2.25 2.16v5.04Z" stroke="#000000" stroke-width="1.5px" stroke-linecap="round" stroke-linejoin="round" fill="none"></path><path d="M.75 23.32h22.5" stroke="#000000" stroke-width="1.5px" stroke-linecap="round" stroke-linejoin="round" fill="none"></path></g></svg>