<svg xmlns="http://www.w3.org/2000/svg" xmlns:xlink="http://www.w3.org/1999/xlink" style="width: 100%; height: 100%" viewBox="0 0 24 24" preserveAspectRatio="none" width="24" height="24"><defs><svg width="24" height="24" fill="none" xmlns="http://www.w3.org/2000/svg" id="svg704662520_317"><path d="M.75 4.5H22.5a.75.75 0 0 1 .75.75V9a1.5 1.5 0 0 1-1.5 1.5h-12A1.5 1.5 0 0 1 8.25 9V4.5M9.75 15v1.5m3 0v-3m3 1.5v1.5m6-1.5v1.5m-3 0v-3m-10.5 6h15" stroke="#000000" stroke-width="1.5px" stroke-linecap="round" stroke-linejoin="round" fill="none"></path></svg></defs><g><path d="M.75 4.5H22.5a.75.75 0 0 1 .75.75V9a1.5 1.5 0 0 1-1.5 1.5h-12A1.5 1.5 0 0 1 8.25 9V4.5M9.75 15v1.5m3 0v-3m3 1.5v1.5m6-1.5v1.5m-3 0v-3m-10.5 6h15" stroke="#000000" stroke-width="1.5px" stroke-linecap="round" stroke-linejoin="round" fill="none"></path></g></svg>