<svg xmlns="http://www.w3.org/2000/svg" xmlns:xlink="http://www.w3.org/1999/xlink" style="width: 100%; height: 100%" viewBox="0 0 24 25" preserveAspectRatio="none" width="24" height="25"><defs><svg width="24" height="25" fill="none" xmlns="http://www.w3.org/2000/svg" id="svg1818047566_527"><path d="m.75 13.24 3-7.2L12 1.72m11.25 11.52-3-7.2L12 1.72m-8.25 21.6v-10.8m16.5 10.8v-10.8M.75 23.32h22.5m-15.75 0v-7.2h9v7.2m-9-7.2 9 7.2m0-7.2-9 7.2" stroke="#000000" stroke-width="1.5px" stroke-linecap="round" stroke-linejoin="round" fill="none"></path><path clip-rule="evenodd" d="M12 10.36c1.243 0 2.25-.967 2.25-2.16S13.243 6.04 12 6.04s-2.25.967-2.25 2.16 1.007 2.16 2.25 2.16Z" stroke="#000000" stroke-width="1.5px" stroke-linecap="round" stroke-linejoin="round" fill="none"></path></svg></defs><g><path d="m.75 13.24 3-7.2L12 1.72m11.25 11.52-3-7.2L12 1.72m-8.25 21.6v-10.8m16.5 10.8v-10.8M.75 23.32h22.5m-15.75 0v-7.2h9v7.2m-9-7.2 9 7.2m0-7.2-9 7.2" stroke="#000000" stroke-width="1.5px" stroke-linecap="round" stroke-linejoin="round" fill="none"></path><path clip-rule="evenodd" d="M12 10.36c1.243 0 2.25-.967 2.25-2.16S13.243 6.04 12 6.04s-2.25.967-2.25 2.16 1.007 2.16 2.25 2.16Z" stroke="#000000" stroke-width="1.5px" stroke-linecap="round" stroke-linejoin="round" fill="none"></path></g></svg>