<svg xmlns="http://www.w3.org/2000/svg" xmlns:xlink="http://www.w3.org/1999/xlink" style="width: 100%; height: 100%" viewBox="0 0 24 24" preserveAspectRatio="none" width="24" height="24"><defs><svg width="24" height="24" fill="none" xmlns="http://www.w3.org/2000/svg" id="svg1840104705_899"><path clip-rule="evenodd" d="M23.25 21.75c0-2.485-5.037-4.5-11.25-4.5S.75 19.265.75 21.75v1.5h22.5v-1.5Z" stroke="#000000" stroke-width="1.5px" stroke-linecap="round" stroke-linejoin="round" fill="none"></path><path d="m15.634 8.477-.811 8.916m-6.336.081 5.247-9.619m0 0 8.276 2.709a.75.75 0 0 0 .975-.861 4.73 4.73 0 0 0-3.6-4.016 6.82 6.82 0 0 0-2.4-.082m-3.251 2.25L6.2 9.9a.75.75 0 0 1-.934-.873 4.756 4.756 0 0 1 3.616-4.09 6.347 6.347 0 0 1 3.112.079" stroke="#000000" stroke-width="1.5px" stroke-linecap="round" stroke-linejoin="round" fill="none"></path><path d="m18.578 5.567 3.1-3.116a.747.747 0 0 0-.21-1.211 4.869 4.869 0 0 0-5.088.51 3.708 3.708 0 0 0-1.28 2.01m-4.921 1.024-1.95-2.116a.748.748 0 0 1 .393-1.242c.827-.16 1.668-.24 2.51-.239A5.081 5.081 0 0 1 15.1 3.76" stroke="#000000" stroke-width="1.5px" stroke-linecap="round" stroke-linejoin="round" fill="none"></path></svg></defs><g><path clip-rule="evenodd" d="M23.25 21.75c0-2.485-5.037-4.5-11.25-4.5S.75 19.265.75 21.75v1.5h22.5v-1.5Z" stroke="#000000" stroke-width="1.5px" stroke-linecap="round" stroke-linejoin="round" fill="none"></path><path d="m15.634 8.477-.811 8.916m-6.336.081 5.247-9.619m0 0 8.276 2.709a.75.75 0 0 0 .975-.861 4.73 4.73 0 0 0-3.6-4.016 6.82 6.82 0 0 0-2.4-.082m-3.251 2.25L6.2 9.9a.75.75 0 0 1-.934-.873 4.756 4.756 0 0 1 3.616-4.09 6.347 6.347 0 0 1 3.112.079" stroke="#000000" stroke-width="1.5px" stroke-linecap="round" stroke-linejoin="round" fill="none"></path><path d="m18.578 5.567 3.1-3.116a.747.747 0 0 0-.21-1.211 4.869 4.869 0 0 0-5.088.51 3.708 3.708 0 0 0-1.28 2.01m-4.921 1.024-1.95-2.116a.748.748 0 0 1 .393-1.242c.827-.16 1.668-.24 2.51-.239A5.081 5.081 0 0 1 15.1 3.76" stroke="#000000" stroke-width="1.5px" stroke-linecap="round" stroke-linejoin="round" fill="none"></path></g></svg>