<svg xmlns="http://www.w3.org/2000/svg" xmlns:xlink="http://www.w3.org/1999/xlink" style="width: 100%; height: 100%" viewBox="0 0 24 25" preserveAspectRatio="none" width="24" height="25"><defs><svg width="24" height="25" fill="none" xmlns="http://www.w3.org/2000/svg" id="svg1126961937_769"><path d="M.75 14.254v9" stroke="#000000" stroke-width="1.5px" stroke-linecap="round" stroke-linejoin="round" fill="none"></path><path clip-rule="evenodd" d="M15.75 21.754a3 3 0 0 0-3-3H9a3 3 0 0 0-3-3H.75v6h15Z" stroke="#000000" stroke-width="1.5px" stroke-linecap="round" stroke-linejoin="round" fill="none"></path><path d="M6 18.754h3m-6.75-7.5h21M12.75.754v1.5" stroke="#000000" stroke-width="1.5px" stroke-linecap="round" stroke-linejoin="round" fill="none"></path><path clip-rule="evenodd" d="M21.75 11.254a9 9 0 1 0-18 0h18Z" stroke="#000000" stroke-width="1.5px" stroke-linecap="round" stroke-linejoin="round" fill="none"></path><path d="m21.75 11.254-.671 1.346a3 3 0 0 1-2.679 1.654h-7.15" stroke="#000000" stroke-width="1.5px" stroke-linecap="round" stroke-linejoin="round" fill="none"></path></svg></defs><g><path d="M.75 14.254v9" stroke="#000000" stroke-width="1.5px" stroke-linecap="round" stroke-linejoin="round" fill="none"></path><path clip-rule="evenodd" d="M15.75 21.754a3 3 0 0 0-3-3H9a3 3 0 0 0-3-3H.75v6h15Z" stroke="#000000" stroke-width="1.5px" stroke-linecap="round" stroke-linejoin="round" fill="none"></path><path d="M6 18.754h3m-6.75-7.5h21M12.75.754v1.5" stroke="#000000" stroke-width="1.5px" stroke-linecap="round" stroke-linejoin="round" fill="none"></path><path clip-rule="evenodd" d="M21.75 11.254a9 9 0 1 0-18 0h18Z" stroke="#000000" stroke-width="1.5px" stroke-linecap="round" stroke-linejoin="round" fill="none"></path><path d="m21.75 11.254-.671 1.346a3 3 0 0 1-2.679 1.654h-7.15" stroke="#000000" stroke-width="1.5px" stroke-linecap="round" stroke-linejoin="round" fill="none"></path></g></svg>