<svg xmlns="http://www.w3.org/2000/svg" xmlns:xlink="http://www.w3.org/1999/xlink" style="width: 100%; height: 100%" viewBox="0 0 24 24" preserveAspectRatio="none" width="24" height="24"><defs><svg width="24" height="24" fill="none" xmlns="http://www.w3.org/2000/svg" id="svg-1127310806_1209"><path d="m12.786 17.122 2.92.315m-3.412-4.895 3.896.421" stroke="#000000" stroke-width="1.5px" stroke-linecap="round" stroke-linejoin="round" fill="none"></path><path clip-rule="evenodd" d="M8.759.791a2.25 2.25 0 0 0-2 2.478l2.018 18.642a1.5 1.5 0 0 0 1.652 1.33l1.492-.161a1.5 1.5 0 0 0 1.33-1.652L11.237 2.786A2.25 2.25 0 0 0 8.759.791Z" stroke="#000000" stroke-width="1.5px" stroke-linecap="round" stroke-linejoin="round" fill="none"></path><path d="m12 23.069.079.011 1.492.161a1.5 1.5 0 0 0 1.652-1.33l2.014-18.642a2.25 2.25 0 0 0-4.474-.483L12 9.848m.768 7.106-4.474.483m3.99-4.957-4.474.483M2.25 6.75v16.5m-1.5-3h3" stroke="#000000" stroke-width="1.5px" stroke-linecap="round" stroke-linejoin="round" fill="none"></path><path clip-rule="evenodd" d="M2.25.75a1.5 1.5 0 0 0-1.5 1.5v4.5h3v-4.5a1.5 1.5 0 0 0-1.5-1.5Z" stroke="#000000" stroke-width="1.5px" stroke-linecap="round" stroke-linejoin="round" fill="none"></path><path d="M21.75 6.75v16.5m-1.5-3h3" stroke="#000000" stroke-width="1.5px" stroke-linecap="round" stroke-linejoin="round" fill="none"></path><path clip-rule="evenodd" d="M21.75.75a1.5 1.5 0 0 0-1.5 1.5v4.5h3v-4.5a1.5 1.5 0 0 0-1.5-1.5Z" stroke="#000000" stroke-width="1.5px" stroke-linecap="round" stroke-linejoin="round" fill="none"></path></svg></defs><g><path d="m12.786 17.122 2.92.315m-3.412-4.895 3.896.421" stroke="#000000" stroke-width="1.5px" stroke-linecap="round" stroke-linejoin="round" fill="none"></path><path clip-rule="evenodd" d="M8.759.791a2.25 2.25 0 0 0-2 2.478l2.018 18.642a1.5 1.5 0 0 0 1.652 1.33l1.492-.161a1.5 1.5 0 0 0 1.33-1.652L11.237 2.786A2.25 2.25 0 0 0 8.759.791Z" stroke="#000000" stroke-width="1.5px" stroke-linecap="round" stroke-linejoin="round" fill="none"></path><path d="m12 23.069.079.011 1.492.161a1.5 1.5 0 0 0 1.652-1.33l2.014-18.642a2.25 2.25 0 0 0-4.474-.483L12 9.848m.768 7.106-4.474.483m3.99-4.957-4.474.483M2.25 6.75v16.5m-1.5-3h3" stroke="#000000" stroke-width="1.5px" stroke-linecap="round" stroke-linejoin="round" fill="none"></path><path clip-rule="evenodd" d="M2.25.75a1.5 1.5 0 0 0-1.5 1.5v4.5h3v-4.5a1.5 1.5 0 0 0-1.5-1.5Z" stroke="#000000" stroke-width="1.5px" stroke-linecap="round" stroke-linejoin="round" fill="none"></path><path d="M21.75 6.75v16.5m-1.5-3h3" stroke="#000000" stroke-width="1.5px" stroke-linecap="round" stroke-linejoin="round" fill="none"></path><path clip-rule="evenodd" d="M21.75.75a1.5 1.5 0 0 0-1.5 1.5v4.5h3v-4.5a1.5 1.5 0 0 0-1.5-1.5Z" stroke="#000000" stroke-width="1.5px" stroke-linecap="round" stroke-linejoin="round" fill="none"></path></g></svg>