<svg xmlns="http://www.w3.org/2000/svg" xmlns:xlink="http://www.w3.org/1999/xlink" style="width: 100%; height: 100%" viewBox="0 0 24 24" preserveAspectRatio="none" width="24" height="24"><defs><svg width="24" height="24" fill="none" xmlns="http://www.w3.org/2000/svg" id="svg152636106_941"><path clip-rule="evenodd" d="M17.25 6.25a2.625 2.625 0 1 0 0-5.25 2.625 2.625 0 0 0 0 5.25Z" stroke="#000000" stroke-width="1.5px" stroke-linecap="round" stroke-linejoin="round" fill="none"></path><path d="M16.454 18.993c.03-.12.046-.244.046-.368v-2.947a3 3 0 0 0-1.336-2.5l-.57-.38.7-1.758c.56.263 1.1.567 1.616.91l4 2.669a1.502 1.502 0 0 0 1.665-2.5l-4-2.669a15.54 15.54 0 0 0-6.668-2.48A4.494 4.494 0 0 1 8.721 5a1.502 1.502 0 1 0-2.5 1.664A7.486 7.486 0 0 0 10.5 9.75l-1.21 1.214a3.01 3.01 0 0 0-.79 2.848l.3 1.211-2.2 1.652a1.5 1.5 0 0 0-.473.6" stroke="#000000" stroke-width="1.5px" stroke-linecap="round" stroke-linejoin="round" fill="none"></path><path d="m9.954 17.909.648-.485a3 3 0 0 0 1.155-2.924c.05.044 1.743 1.18 1.743 1.18v2.82m-12.75.875 22.5 3.75M2.137 19.606l-.844 2.532a.751.751 0 0 0 1.022.92l5.509-2.5" stroke="#000000" stroke-width="1.5px" stroke-linecap="round" stroke-linejoin="round" fill="none"></path></svg></defs><g><path clip-rule="evenodd" d="M17.25 6.25a2.625 2.625 0 1 0 0-5.25 2.625 2.625 0 0 0 0 5.25Z" stroke="#000000" stroke-width="1.5px" stroke-linecap="round" stroke-linejoin="round" fill="none"></path><path d="M16.454 18.993c.03-.12.046-.244.046-.368v-2.947a3 3 0 0 0-1.336-2.5l-.57-.38.7-1.758c.56.263 1.1.567 1.616.91l4 2.669a1.502 1.502 0 0 0 1.665-2.5l-4-2.669a15.54 15.54 0 0 0-6.668-2.48A4.494 4.494 0 0 1 8.721 5a1.502 1.502 0 1 0-2.5 1.664A7.486 7.486 0 0 0 10.5 9.75l-1.21 1.214a3.01 3.01 0 0 0-.79 2.848l.3 1.211-2.2 1.652a1.5 1.5 0 0 0-.473.6" stroke="#000000" stroke-width="1.5px" stroke-linecap="round" stroke-linejoin="round" fill="none"></path><path d="m9.954 17.909.648-.485a3 3 0 0 0 1.155-2.924c.05.044 1.743 1.18 1.743 1.18v2.82m-12.75.875 22.5 3.75M2.137 19.606l-.844 2.532a.751.751 0 0 0 1.022.92l5.509-2.5" stroke="#000000" stroke-width="1.5px" stroke-linecap="round" stroke-linejoin="round" fill="none"></path></g></svg>