<svg xmlns="http://www.w3.org/2000/svg" xmlns:xlink="http://www.w3.org/1999/xlink" style="width: 100%; height: 100%" viewBox="0 0 24 25" preserveAspectRatio="none" width="24" height="25"><defs><svg width="24" height="25" fill="none" xmlns="http://www.w3.org/2000/svg" id="svg-462846524_1004"><path clip-rule="evenodd" d="M7.374 1.084a.75.75 0 0 0-1.248 0L2.25 7.5H4.5l-2.9 4.128a.75.75 0 0 0 .65 1.122h9a.75.75 0 0 0 .651-1.122L9.001 7.5h2.25L7.373 1.084Z" stroke="#000000" stroke-width="1.5px" stroke-linecap="round" stroke-linejoin="round" fill="none"></path><path d="M6.75 12.75v4.582" stroke="#000000" stroke-width="1.5px" stroke-linecap="round" stroke-linejoin="round" fill="none"></path><path clip-rule="evenodd" d="M19.262 1.023a.614.614 0 0 0-1.021 0L15.069 6h1.841l-2.578 3.582a.613.613 0 0 0 .533.918h7.77a.613.613 0 0 0 .533-.918L20.592 6h1.841l-3.171-4.977Z" stroke="#000000" stroke-width="1.5px" stroke-linecap="round" stroke-linejoin="round" fill="none"></path><path d="M18.751 10.5v4.035M.805 18a13.517 13.517 0 0 1 15.673 5.254" stroke="#000000" stroke-width="1.5px" stroke-linecap="round" stroke-linejoin="round" fill="none"></path><path d="M10.969 18.518A15.7 15.7 0 0 1 21.75 14.25c.506 0 1.006.023 1.5.07" stroke="#000000" stroke-width="1.5px" stroke-linecap="round" stroke-linejoin="round" fill="none"></path></svg></defs><g><path clip-rule="evenodd" d="M7.374 1.084a.75.75 0 0 0-1.248 0L2.25 7.5H4.5l-2.9 4.128a.75.75 0 0 0 .65 1.122h9a.75.75 0 0 0 .651-1.122L9.001 7.5h2.25L7.373 1.084Z" stroke="#000000" stroke-width="1.5px" stroke-linecap="round" stroke-linejoin="round" fill="none"></path><path d="M6.75 12.75v4.582" stroke="#000000" stroke-width="1.5px" stroke-linecap="round" stroke-linejoin="round" fill="none"></path><path clip-rule="evenodd" d="M19.262 1.023a.614.614 0 0 0-1.021 0L15.069 6h1.841l-2.578 3.582a.613.613 0 0 0 .533.918h7.77a.613.613 0 0 0 .533-.918L20.592 6h1.841l-3.171-4.977Z" stroke="#000000" stroke-width="1.5px" stroke-linecap="round" stroke-linejoin="round" fill="none"></path><path d="M18.751 10.5v4.035M.805 18a13.517 13.517 0 0 1 15.673 5.254" stroke="#000000" stroke-width="1.5px" stroke-linecap="round" stroke-linejoin="round" fill="none"></path><path d="M10.969 18.518A15.7 15.7 0 0 1 21.75 14.25c.506 0 1.006.023 1.5.07" stroke="#000000" stroke-width="1.5px" stroke-linecap="round" stroke-linejoin="round" fill="none"></path></g></svg>